<?xml version="1.0" standalone="no"?>
<!DOCTYPE svg PUBLIC "-//W3C//DTD SVG 20010904//EN"
 "http://www.w3.org/TR/2001/REC-SVG-20010904/DTD/svg10.dtd">
<svg version="1.0" xmlns="http://www.w3.org/2000/svg"
 width="136.000000pt" height="26.000000pt" viewBox="0 0 136.000000 26.000000"
 preserveAspectRatio="xMidYMid meet">

<g transform="translate(0.000000,26.000000) scale(0.100000,-0.100000)"
fill="#000000" stroke="none">
<path d="M808 202 c-52 -2 -68 -6 -68 -17 0 -10 10 -15 29 -15 34 0 41 -14 41
-81 0 -33 4 -49 13 -49 10 0 12 16 9 65 l-4 65 31 6 c29 6 41 19 24 26 -5 2
-38 2 -75 0z"/>
<path d="M925 190 c-10 -11 -20 -39 -22 -63 -7 -56 19 -87 70 -87 66 0 94 79
49 139 -24 32 -73 38 -97 11z m74 -26 c25 -32 27 -67 5 -88 -18 -19 -28 -20
-55 -6 -24 14 -26 76 -2 102 21 24 28 23 52 -8z"/>
<path d="M185 148 c9 -71 32 -103 76 -103 26 0 36 6 46 25 17 34 17 130 0 130
-9 0 -13 -17 -13 -56 -1 -71 -20 -94 -54 -66 -17 13 -24 32 -28 70 -3 37 -9
52 -19 52 -12 0 -14 -10 -8 -52z"/>
<path d="M334 163 c3 -21 6 -57 6 -80 0 -32 4 -43 15 -43 11 0 15 12 15 52 l0
52 30 -29 c17 -16 30 -39 30 -52 0 -15 6 -23 18 -23 15 0 17 9 14 80 -3 61 -7
80 -18 80 -10 0 -14 -12 -14 -37 l-1 -38 -34 38 c-20 20 -43 37 -51 37 -14 0
-15 -7 -10 -37z"/>
<path d="M517 193 c-32 -4 -37 -7 -32 -23 3 -10 7 -46 8 -79 1 -61 1 -61 32
-61 40 0 75 10 75 21 0 5 -18 9 -41 9 -33 0 -40 3 -37 18 2 11 14 18 36 20 44
4 44 33 0 30 -27 -3 -33 1 -33 17 0 16 8 21 39 25 22 3 41 11 44 18 4 12 -11
13 -91 5z"/>
<path d="M640 180 c-11 -11 -20 -29 -20 -39 0 -23 35 -51 63 -51 11 0 17 -5
14 -12 -2 -8 -17 -12 -37 -10 -30 3 -32 2 -21 -12 17 -20 65 -21 81 -1 20 24
7 49 -30 61 -23 8 -35 18 -35 30 0 28 41 31 48 4 7 -26 27 -18 27 10 0 20 -27
40 -54 40 -9 0 -25 -9 -36 -20z"/>
<path d="M1218 193 c-37 -4 -48 -15 -28 -28 6 -3 8 -34 6 -71 l-4 -64 28 0
c42 0 90 11 90 21 0 5 -18 9 -40 9 -33 0 -40 3 -40 20 0 16 7 20 36 20 24 0
34 4 31 13 -2 6 -19 12 -38 12 -27 0 -34 4 -34 20 0 16 8 21 43 23 28 2 42 8
42 18 0 14 -12 15 -92 7z"/>
<path d="M30 146 c0 -56 10 -106 21 -106 5 0 9 21 9 48 l1 47 20 -24 c18 -23
20 -23 39 -6 18 16 19 16 22 -21 2 -20 9 -39 16 -42 9 -3 12 16 12 72 0 85
-13 98 -44 44 l-19 -31 -28 31 c-16 18 -33 32 -39 32 -5 0 -10 -20 -10 -44z"/>
<path d="M1060 115 c0 -58 3 -75 14 -75 8 0 16 5 18 12 3 7 12 6 31 -6 39 -26
56 -9 21 20 -26 22 -27 25 -11 34 40 25 7 90 -46 90 -27 0 -27 0 -27 -75z m60
25 c0 -23 -29 -35 -36 -15 -4 8 -4 22 0 30 7 20 36 8 36 -15z"/>
</g>
</svg>
