<?xml version="1.0" standalone="no"?>
<!DOCTYPE svg PUBLIC "-//W3C//DTD SVG 20010904//EN"
 "http://www.w3.org/TR/2001/REC-SVG-20010904/DTD/svg10.dtd">
<svg version="1.0" xmlns="http://www.w3.org/2000/svg"
 width="271.000000pt" height="52.000000pt" viewBox="0 0 271.000000 52.000000"
 preserveAspectRatio="xMidYMid meet">

<g transform="translate(0.000000,52.000000) scale(0.100000,-0.100000)"
fill="#000000" stroke="none">
<path d="M1875 410 c-71 -45 -107 -186 -68 -260 44 -80 167 -102 232 -41 74
69 53 225 -39 291 -37 26 -56 25 -64 -2 -7 -23 -7 -23 -19 4 l-12 28 -30 -20z
m93 -56 c60 -42 81 -156 37 -199 -34 -35 -96 -35 -130 0 -41 40 -33 147 15
195 24 24 48 25 78 4z"/>
<path d="M605 410 c-18 -6 -20 -16 -20 -106 0 -103 -13 -146 -48 -168 -13 -8
-24 -7 -45 4 -43 24 -65 82 -70 183 -4 85 -5 87 -29 87 l-25 0 4 -102 c5 -116
25 -170 78 -208 75 -54 146 -25 175 73 15 52 21 213 7 233 -4 6 -16 8 -27 4z"/>
<path d="M1700 409 c-25 -4 -84 -8 -132 -8 l-88 -1 0 -30 c0 -30 0 -30 59 -30
l58 0 6 -82 c4 -46 7 -107 7 -135 0 -54 7 -61 42 -48 12 5 14 31 10 140 l-5
135 44 0 c58 0 72 10 63 43 -3 15 -9 26 -13 26 -3 -1 -26 -5 -51 -10z"/>
<path d="M672 246 c1 -90 6 -167 9 -171 4 -3 19 -3 34 1 l27 7 -7 98 c-4 55
-4 99 -1 99 4 0 33 -28 64 -61 45 -49 58 -70 62 -103 5 -38 7 -41 34 -39 16 1
30 3 31 5 1 2 0 76 -3 166 l-5 162 -33 0 -34 0 0 -72 0 -72 -60 59 c-33 33
-60 65 -60 72 0 8 -12 13 -31 13 l-31 0 4 -164z"/>
<path d="M1155 399 c-22 -4 -77 -8 -122 -8 l-83 -1 0 -30 c0 -21 5 -30 16 -30
13 0 15 -13 14 -72 -1 -40 1 -88 5 -105 5 -22 3 -33 -4 -33 -6 0 -11 -14 -11
-32 l0 -31 104 6 c126 8 134 11 128 42 -4 24 -6 24 -83 18 l-79 -6 0 36 0 36
71 7 c68 7 70 7 67 33 -3 26 -4 26 -70 22 l-68 -3 0 40 0 40 58 6 c103 12 112
15 112 41 0 30 -6 33 -55 24z"/>
<path d="M2555 399 c-22 -4 -77 -8 -122 -8 l-83 -1 0 -30 c0 -23 4 -30 20 -30
19 0 19 -6 16 -135 l-4 -135 56 1 c66 1 159 13 168 21 3 4 3 16 -1 27 -6 20
-11 21 -77 14 -75 -7 -88 0 -88 44 0 19 7 22 68 28 37 4 70 9 73 11 4 2 4 15
2 28 -5 24 -7 25 -74 19 l-69 -6 0 41 0 40 63 7 c101 10 119 15 113 32 -3 8
-6 21 -6 29 0 8 -3 13 -7 13 -5 -1 -26 -5 -48 -10z"/>
<path d="M1304 386 c-43 -19 -64 -53 -64 -104 0 -58 31 -89 99 -98 56 -7 69
-17 51 -39 -14 -17 -66 -20 -75 -5 -4 6 -16 8 -28 4 -30 -9 -30 -10 -18 -32
15 -28 64 -45 105 -38 36 7 86 55 86 82 0 42 -53 84 -105 84 -62 0 -84 41 -44
81 28 28 84 23 84 -7 0 -11 6 -28 14 -38 28 -33 55 27 35 79 -8 20 -56 45 -86
45 -13 -1 -37 -7 -54 -14z"/>
<path d="M2142 382 l-33 -3 3 -149 c2 -82 6 -151 10 -155 14 -15 48 7 48 31 0
13 2 24 5 24 2 0 30 -18 61 -40 32 -22 60 -40 64 -40 4 0 12 11 18 24 10 22 7
27 -44 60 l-54 36 37 34 c30 27 37 41 37 70 0 65 -72 116 -152 108z m76 -68
c39 -27 21 -71 -35 -88 -22 -7 -23 -5 -23 48 0 62 14 71 58 40z"/>
<path d="M66 228 c3 -84 8 -155 10 -157 2 -2 14 -1 28 3 l26 6 -7 90 c-4 57
-2 90 4 90 14 0 43 -34 43 -51 0 -8 9 -20 21 -27 18 -12 23 -11 34 5 7 10 22
29 34 43 l20 25 1 -46 c0 -73 12 -139 24 -139 36 1 39 14 31 164 -7 141 -8
146 -29 146 -13 0 -26 -10 -33 -27 -7 -16 -24 -41 -37 -58 l-25 -30 -45 45
c-25 24 -46 50 -46 57 0 8 -12 13 -31 13 l-30 0 7 -152z"/>
</g>
</svg>
